<svg width="60" height="60" viewBox="0 0 60 60" fill="none" xmlns="http://www.w3.org/2000/svg">
<path d="M38.2852 27.5698C37.8674 27.5681 37.4539 27.6536 37.0711 27.821C36.6884 27.9884 36.3448 28.2338 36.0624 28.5416C35.7799 28.8495 35.5649 29.2129 35.4311 29.6086C35.2973 30.0044 35.2476 30.4237 35.2852 30.8398H41.4652C41.5051 30.4081 41.4509 29.9729 41.3065 29.5642C41.1621 29.1554 40.9308 28.7828 40.6286 28.472C40.3264 28.1613 39.9604 27.9197 39.5558 27.7639C39.1513 27.6081 38.7178 27.5419 38.2852 27.5698ZM22.4752 30.8998H18.7852V36.7198H21.7852C24.7852 36.7198 26.1052 35.7298 26.1052 33.7198C26.1052 31.7098 24.7252 30.8998 22.4752 30.8998ZM25.0852 25.5598C25.0852 23.9698 24.0352 23.0098 22.2352 23.0098H18.7852V28.2298H21.3352C24.0052 28.2298 25.0852 27.2698 25.0852 25.5598Z" fill="black"/>
<path d="M30 0C24.0666 0 18.2664 1.75947 13.3329 5.05591C8.39943 8.35235 4.55426 13.0377 2.28363 18.5195C0.0129985 24.0013 -0.581101 30.0333 0.576455 35.8527C1.73401 41.6721 4.59123 47.0176 8.78681 51.2132C12.9824 55.4088 18.3279 58.266 24.1473 59.4235C29.9667 60.5811 35.9987 59.987 41.4805 57.7164C46.9623 55.4457 51.6476 51.6006 54.9441 46.6671C58.2405 41.7336 60 35.9334 60 30C60 26.0603 59.224 22.1593 57.7164 18.5195C56.2088 14.8797 53.999 11.5726 51.2132 8.78679C48.4274 6.00104 45.1203 3.79125 41.4805 2.28361C37.8407 0.775973 33.9397 0 30 0ZM23.1 39.6H15V20.1H23.1C26.61 20.1 28.92 21.93 28.92 24.9C28.9614 25.8978 28.6459 26.8777 28.0302 27.6639C27.4144 28.4501 26.5386 28.9911 25.56 29.19C26.1802 29.2044 26.791 29.3451 27.3549 29.6037C27.9188 29.8623 28.424 30.2332 28.8397 30.6937C29.2553 31.1543 29.5726 31.6948 29.7721 32.2822C29.9716 32.8696 30.0492 33.4916 30 34.11C30 37.59 27 39.6 23.1 39.6ZM33.75 21.6H42.75V23.1H33.75V21.6ZM45 33.15H35.1V33.57C35.0484 34.0259 35.0951 34.4875 35.237 34.9238C35.3789 35.3601 35.6127 35.7609 35.9226 36.0992C36.2324 36.4375 36.6112 36.7054 37.0334 36.885C37.4556 37.0645 37.9114 37.1515 38.37 37.14C39.014 37.24 39.6724 37.1038 40.2237 36.7564C40.7751 36.4091 41.1822 35.874 41.37 35.25H45C44.6768 36.6901 43.8341 37.9605 42.6331 38.8183C41.4321 39.6762 39.9571 40.0613 38.49 39.9C37.5524 39.9947 36.6054 39.8828 35.7157 39.5721C34.8259 39.2614 34.0151 38.7596 33.3402 38.1018C32.6653 37.4441 32.1427 36.6464 31.8092 35.765C31.4758 34.8836 31.3395 33.9398 31.41 33V31.68C31.3463 30.7694 31.4803 29.8558 31.8028 29.0018C32.1252 28.1479 32.6286 27.3738 33.2783 26.7326C33.928 26.0914 34.7087 25.5984 35.5669 25.2872C36.425 24.9761 37.3403 24.8542 38.25 24.93C39.1567 24.8719 40.0653 25.0087 40.9146 25.3312C41.764 25.6537 42.5344 26.1545 43.1739 26.7997C43.8135 27.445 44.3074 28.2198 44.6224 29.0719C44.9374 29.9241 45.0662 30.8339 45 31.74V33.15Z" fill="black"/>
</svg>
