<svg width="60" height="60" viewBox="0 0 60 60" fill="none" xmlns="http://www.w3.org/2000/svg">
<path d="M60 30C60 35.4427 58.6589 40.4622 55.9766 45.0586C53.2943 49.6549 49.6549 53.2943 45.0586 55.9766C40.4622 58.6589 35.4427 60 30 60C27.1094 60 24.2708 59.5833 21.4844 58.75C23.0208 56.3281 24.0365 54.1927 24.5312 52.3438C24.7656 51.4583 25.4688 48.7109 26.6406 44.1016C27.1615 45.1172 28.112 45.9961 29.4922 46.7383C30.8724 47.4805 32.3568 47.8516 33.9453 47.8516C37.0964 47.8516 39.9089 46.9596 42.3828 45.1758C44.8568 43.3919 46.7708 40.9375 48.125 37.8125C49.4792 34.6875 50.1562 31.1719 50.1562 27.2656C50.1562 24.2969 49.3815 21.5104 47.832 18.9062C46.2826 16.3021 44.0365 14.1797 41.0938 12.5391C38.151 10.8984 34.8307 10.0781 31.1328 10.0781C28.3984 10.0781 25.8464 10.4557 23.4766 11.2109C21.1068 11.9661 19.0951 12.9688 17.4414 14.2188C15.7878 15.4688 14.3685 16.9076 13.1836 18.5352C11.9987 20.1628 11.1263 21.849 10.5664 23.5938C10.0065 25.3385 9.72656 27.0833 9.72656 28.8281C9.72656 31.5365 10.2474 33.9193 11.2891 35.9766C12.3307 38.0339 13.8542 39.4792 15.8594 40.3125C16.6406 40.625 17.1354 40.3646 17.3438 39.5312C17.3958 39.349 17.5 38.9453 17.6562 38.3203C17.8125 37.6953 17.9167 37.3047 17.9688 37.1484C18.125 36.5495 17.9818 35.9896 17.5391 35.4688C16.2109 33.8802 15.5469 31.9141 15.5469 29.5703C15.5469 25.638 16.9076 22.2591 19.6289 19.4336C22.3503 16.6081 25.9115 15.1953 30.3125 15.1953C34.2448 15.1953 37.3112 16.263 39.5117 18.3984C41.7122 20.5339 42.8125 23.3073 42.8125 26.7188C42.8125 31.1458 41.9206 34.9089 40.1367 38.0078C38.3529 41.1068 36.0677 42.6562 33.2812 42.6562C31.6927 42.6562 30.4167 42.0898 29.4531 40.957C28.4896 39.8242 28.1901 38.4635 28.5547 36.875C28.763 35.9635 29.1081 34.7461 29.5898 33.2227C30.0716 31.6992 30.4622 30.3581 30.7617 29.1992C31.0612 28.0404 31.2109 27.0573 31.2109 26.25C31.2109 24.9479 30.8594 23.8672 30.1562 23.0078C29.4531 22.1484 28.4505 21.7188 27.1484 21.7188C25.5339 21.7188 24.1667 22.4609 23.0469 23.9453C21.9271 25.4297 21.3672 27.2786 21.3672 29.4922C21.3672 31.3932 21.6927 32.9818 22.3438 34.2578L18.4766 50.5859C18.0339 52.4089 17.8646 54.7135 17.9688 57.5C12.6042 55.1302 8.26823 51.4714 4.96094 46.5234C1.65365 41.5755 0 36.0677 0 30C0 24.5573 1.34115 19.5378 4.02344 14.9414C6.70573 10.3451 10.3451 6.70573 14.9414 4.02344C19.5378 1.34115 24.5573 0 30 0C35.4427 0 40.4622 1.34115 45.0586 4.02344C49.6549 6.70573 53.2943 10.3451 55.9766 14.9414C58.6589 19.5378 60 24.5573 60 30Z" fill="black"/>
</svg>
