<svg width="60" height="60" viewBox="0 0 60 60" fill="none" xmlns="http://www.w3.org/2000/svg">
<path d="M30 0C24.0666 0 18.2664 1.75947 13.3329 5.05591C8.39943 8.35235 4.55426 13.0377 2.28363 18.5195C0.0129984 24.0013 -0.581101 30.0333 0.576455 35.8527C1.73401 41.6721 4.59123 47.0176 8.78681 51.2132C12.9824 55.4088 18.3279 58.266 24.1473 59.4235C29.9667 60.5811 35.9987 59.987 41.4805 57.7164C46.9623 55.4457 51.6476 51.6006 54.9441 46.6671C58.2405 41.7336 60 35.9334 60 30C60 22.0435 56.8393 14.4129 51.2132 8.78679C45.5871 3.1607 37.9565 0 30 0ZM44.7375 20.55L39.825 43.7625C39.45 45.4125 38.475 45.7875 37.0875 45.0375L29.5875 39.4875L25.8375 42.975C25.6609 43.2057 25.434 43.3932 25.1741 43.5232C24.9142 43.6531 24.6281 43.7221 24.3375 43.725L24.8625 36.225L38.7375 23.6625C39.375 23.1375 38.7375 22.8375 37.8375 23.3625L20.8125 34.05L13.3125 31.725C11.7 31.2375 11.6625 30.1125 13.65 29.3625L42.5625 18.1125C43.9875 17.7 45.1875 18.525 44.7375 20.55Z" fill="black"/>
</svg>
